<?xml version="1.0" encoding="UTF-8"?>
<svg width="20px" height="20px" viewBox="0 0 20 20" version="1.1" xmlns="http://www.w3.org/2000/svg" xmlns:xlink="http://www.w3.org/1999/xlink">
    <!-- Generator: Sketch 43.2 (39069) - http://www.bohemiancoding.com/sketch -->
    <title>Group</title>
    <desc>Created with Sketch.</desc>
    <defs></defs>
    <g id="Final" stroke="none" stroke-width="1" fill="none" fill-rule="evenodd">
        <g id="iPad-Pro-Landscape-Copy-11" transform="translate(-64.000000, -495.000000)" fill="#FF3431">
            <g id="Group-4" transform="translate(64.000000, 492.000000)">
                <g id="Group" transform="translate(0.000000, 3.000000)">
                    <path d="M9.99684524,0.0393713838 C7.28188492,0.0393713838 6.94140873,0.0507879435 5.87517857,0.0990524337 C4.81109127,0.147198821 4.0844246,0.314864779 3.4485119,0.560045239 C2.79117063,0.813453496 2.23363095,1.15256469 1.67787698,1.70390578 C1.12208333,2.25528625 0.780297619,2.80835951 0.524821429,3.46048127 C0.277678571,4.09134461 0.108710317,4.8122413 0.0601388889,5.8678794 C0.0114880952,6.9256827 1.98412698e-05,7.26337666 1.98412698e-05,9.95681866 C1.98412698e-05,12.6502607 0.0114880952,12.987994 0.0601388889,14.0457973 C0.108710317,15.101396 0.277678571,15.8223321 0.524821429,16.453156 C0.780297619,17.1052778 1.12208333,17.6583904 1.67787698,18.2097315 C2.23363095,18.761112 2.79117063,19.1001838 3.4485119,19.3536708 C4.0844246,19.5988119 4.81109127,19.7664779 5.87517857,19.8146636 C6.94140873,19.8628887 7.28188492,19.8743053 9.99684524,19.8743053 C12.7118452,19.8743053 13.0522421,19.8628887 14.1185119,19.8146636 C15.1825992,19.7664779 15.9092659,19.5988119 16.5451786,19.3536708 C17.2025595,19.1001838 17.7600595,18.761112 18.3158135,18.2097315 C18.8716071,17.6583904 19.2133929,17.1053172 19.468869,16.453156 C19.7160119,15.8223321 19.8850198,15.101396 19.9335516,14.0457973 C19.9822024,12.987994 19.9937103,12.6502607 19.9937103,9.95681866 C19.9937103,7.26341603 19.9822024,6.9256827 19.9335516,5.8678794 C19.8850198,4.8122413 19.7160119,4.09134461 19.468869,3.46048127 C19.2133929,2.80835951 18.8716071,2.25528625 18.3158135,1.70390578 C17.7600595,1.15256469 17.2025595,0.813453496 16.5451786,0.560045239 C15.9092659,0.314864779 15.1825992,0.147198821 14.1185119,0.0990524337 C13.0522421,0.0507879435 12.7118452,0.0393713838 9.99684524,0.0393713838 M9.99684524,1.82629918 C12.666131,1.82629918 12.9822817,1.83637724 14.0364087,1.88409059 C15.0110913,1.9282215 15.5404167,2.0897855 15.8926786,2.22560319 C16.3593056,2.40551242 16.6923611,2.62041932 17.0421627,2.96744336 C17.3919643,3.31450678 17.6085913,3.64487839 17.7899802,4.1078002 C17.9268452,4.45726503 18.0897024,4.98238741 18.1341865,5.94933065 C18.1822421,6.99508751 18.1924405,7.30876733 18.1924405,9.95681866 C18.1924405,12.6049094 18.1822421,12.9185892 18.1341865,13.9643067 C18.0897024,14.9312893 17.9268452,15.4564117 17.7899802,15.8058765 C17.6085913,16.2687589 17.3919643,16.5991699 17.0421627,16.946194 C16.6923611,17.2932574 16.3593056,17.5081643 15.8926786,17.6880735 C15.5404167,17.8238518 15.0110913,17.9854552 14.0364087,18.0295467 C12.9824405,18.0772601 12.6663294,18.0873775 9.99684524,18.0873775 C7.32736111,18.0873775 7.01125,18.0772601 5.95728175,18.0295467 C4.98259921,17.9854552 4.45323413,17.8238518 4.10097222,17.6880735 C3.63438492,17.5081643 3.30132937,17.2932574 2.95152778,16.946194 C2.60172619,16.5991699 2.38505952,16.2687589 2.20371032,15.8058765 C2.06684524,15.4564117 1.9039881,14.9312893 1.85950397,13.964346 C1.81140873,12.9185892 1.80125,12.6049094 1.80125,9.95681866 C1.80125,7.30876733 1.81140873,6.99508751 1.85950397,5.94933065 C1.9039881,4.98238741 2.06684524,4.45726503 2.20371032,4.1078002 C2.38505952,3.64487839 2.60172619,3.31450678 2.95152778,2.96748273 C3.30132937,2.62041932 3.63438492,2.40551242 4.10097222,2.22560319 C4.45323413,2.0897855 4.98259921,1.9282215 5.95724206,1.88409059 C7.01140873,1.83637724 7.32755952,1.82629918 9.99684524,1.82629918" id="Fill-1"></path>
                    <path d="M9.99684524,13.2626607 C8.1564881,13.2626607 6.66454365,11.7825628 6.66454365,9.95681866 C6.66454365,8.13107456 8.1564881,6.65101602 9.99684524,6.65101602 C11.8372024,6.65101602 13.3291468,8.13107456 13.3291468,9.95681866 C13.3291468,11.7825628 11.8372024,13.2626607 9.99684524,13.2626607 M9.99684524,4.86408823 C7.16168651,4.86408823 4.86331349,7.14417203 4.86331349,9.95681866 C4.86331349,12.7695047 7.16168651,15.0495885 9.99684524,15.0495885 C12.832004,15.0495885 15.1303373,12.7695047 15.1303373,9.95681866 C15.1303373,7.14417203 12.832004,4.86408823 9.99684524,4.86408823" id="Fill-4"></path>
                    <path d="M16.5328016,4.66287334 C16.5328016,5.32015223 15.9957381,5.85295126 15.3331984,5.85295126 C14.6706587,5.85295126 14.1335556,5.32015223 14.1335556,4.66287334 C14.1335556,4.00559444 14.6706587,3.47279541 15.3331984,3.47279541 C15.9957381,3.47279541 16.5328016,4.00559444 16.5328016,4.66287334" id="Fill-6"></path>
                </g>
            </g>
        </g>
    </g>
</svg>