<?xml version="1.0" encoding="UTF-8"?>
<svg width="46px" height="46px" viewBox="0 0 46 46" version="1.1" xmlns="http://www.w3.org/2000/svg" xmlns:xlink="http://www.w3.org/1999/xlink">
    <!-- Generator: Sketch 45 (43475) - http://www.bohemiancoding.com/sketch -->
    <title>Icon_Insta_Round</title>
    <desc>Created with Sketch.</desc>
    <defs></defs>
    <g id="Final" stroke="none" stroke-width="1" fill="none" fill-rule="evenodd">
        <g id="Checks-and-Radios" transform="translate(-225.000000, -190.000000)">
            <g id="Icon_Insta_Round" transform="translate(226.000000, 191.000000)">
                <circle id="Oval" stroke="#FF3431" stroke-width="1.7" cx="22" cy="22" r="22"></circle>
                <g id="IconInsta" transform="translate(12.000000, 12.000000)" fill-rule="nonzero" fill="#FF3431">
                    <path d="M10.4966875,0.041339953 C7.64597917,0.041339953 7.28847917,0.0533273407 6.1689375,0.104005055 C5.05164583,0.154558762 4.28864583,0.330608018 3.62093749,0.588047501 C2.93072916,0.854126171 2.3453125,1.21019292 1.76177083,1.78910107 C1.1781875,2.36805056 0.8193125,2.94877749 0.5510625,3.63350533 C0.2915625,4.29591184 0.114145833,5.05285337 0.0631458333,6.16127337 C0.0120625,7.27196684 2.08333333e-05,7.62654549 2.08333333e-05,10.4546596 C2.08333333e-05,13.2827737 0.0120625,13.6373937 0.0631458333,14.7480872 C0.114145833,15.8564658 0.2915625,16.6134487 0.5510625,17.2758138 C0.8193125,17.9605417 1.1781875,18.5413099 1.76177083,19.1202181 C2.3453125,19.6991676 2.93072916,20.055193 3.62093749,20.3213543 C4.28864583,20.5787525 5.05164583,20.7548018 6.1689375,20.8053968 C7.28847917,20.8560331 7.64597917,20.8680206 10.4966875,20.8680206 C13.3474375,20.8680206 13.7048542,20.8560331 14.8244375,20.8053968 C15.9417292,20.7548018 16.7047292,20.5787525 17.3724375,20.3213543 C18.0626875,20.055193 18.6480625,19.6991676 19.2316042,19.1202181 C19.8151875,18.5413099 20.1740625,17.9605831 20.4423124,17.2758138 C20.7018125,16.6134487 20.8792708,15.8564658 20.9302292,14.7480872 C20.9813125,13.6373937 20.9933958,13.2827737 20.9933958,10.4546596 C20.9933958,7.62658683 20.9813125,7.27196684 20.9302292,6.16127337 C20.8792708,5.05285337 20.7018125,4.29591184 20.4423124,3.63350533 C20.1740625,2.94877749 19.8151875,2.36805056 19.2316042,1.78910107 C18.6480625,1.21019292 18.0626875,0.854126171 17.3724375,0.588047501 C16.7047292,0.330608018 15.9417292,0.154558762 14.8244375,0.104005055 C13.7048542,0.0533273407 13.3474375,0.041339953 10.4966875,0.041339953 M10.4966875,1.91761414 C13.2994375,1.91761414 13.6313958,1.9281961 14.7382291,1.97829512 C15.7616459,2.02463258 16.3174375,2.19427478 16.6873125,2.33688335 C17.1772709,2.52578804 17.5269792,2.75144029 17.8942708,3.11581553 C18.2615625,3.48023212 18.4890209,3.82712231 18.6794792,4.31319021 C18.8231875,4.68012828 18.9941875,5.23150678 19.0408958,6.24679718 C19.0913542,7.34484189 19.1020625,7.6742057 19.1020625,10.4546596 C19.1020625,13.2351549 19.0913542,13.5645187 19.0408958,14.662522 C18.9941875,15.6778538 18.8231875,16.2292323 18.6794792,16.5961703 C18.4890209,17.0821968 18.2615625,17.4291284 17.8942708,17.7935037 C17.5269792,18.1579203 17.1772709,18.3835725 16.6873125,18.5724772 C16.3174375,18.7150444 15.7616459,18.884728 14.7382291,18.931024 C13.6315625,18.9811231 13.2996459,18.9917464 10.4966875,18.9917464 C7.69372917,18.9917464 7.3618125,18.9811231 6.25514584,18.931024 C5.23172917,18.884728 4.67589584,18.7150444 4.30602083,18.5724772 C3.81610417,18.3835725 3.46639584,18.1579203 3.09910417,17.7935037 C2.7318125,17.4291284 2.5043125,17.0821968 2.31389584,16.5961703 C2.1701875,16.2292323 1.99918751,15.6778538 1.95247917,14.6625633 C1.90197917,13.5645187 1.8913125,13.2351549 1.8913125,10.4546596 C1.8913125,7.6742057 1.90197917,7.34484189 1.95247917,6.24679718 C1.99918751,5.23150678 2.1701875,4.68012828 2.31389584,4.31319021 C2.5043125,3.82712231 2.7318125,3.48023212 3.09910417,3.11585687 C3.46639584,2.75144029 3.81610417,2.52578804 4.30602083,2.33688335 C4.67589584,2.19427478 5.23172917,2.02463258 6.25510416,1.97829512 C7.36197917,1.9281961 7.6939375,1.91761414 10.4966875,1.91761414" id="Fill-1"></path>
                    <path d="M10.4966875,13.9257937 C8.56431251,13.9257937 6.99777083,12.3716909 6.99777083,10.4546596 C6.99777083,8.53762829 8.56431251,6.98356682 10.4966875,6.98356682 C12.4290625,6.98356682 13.9956041,8.53762829 13.9956041,10.4546596 C13.9956041,12.3716909 12.4290625,13.9257937 10.4966875,13.9257937 M10.4966875,5.10729264 C7.51977084,5.10729264 5.10647916,7.50138063 5.10647916,10.4546596 C5.10647916,13.4079799 7.51977084,15.8020679 10.4966875,15.8020679 C13.4736042,15.8020679 15.8868542,13.4079799 15.8868542,10.4546596 C15.8868542,7.50138063 13.4736042,5.10729264 10.4966875,5.10729264" id="Fill-4"></path>
                    <path d="M17.3594417,4.89601701 C17.3594417,5.58615984 16.795525,6.14559882 16.0998583,6.14559882 C15.4041916,6.14559882 14.8402334,5.58615984 14.8402334,4.89601701 C14.8402334,4.20587416 15.4041916,3.64643518 16.0998583,3.64643518 C16.795525,3.64643518 17.3594417,4.20587416 17.3594417,4.89601701" id="Fill-6"></path>
                </g>
            </g>
        </g>
    </g>
</svg>