<?xml version="1.0" encoding="UTF-8"?>
<svg width="44px" height="44px" viewBox="0 0 44 44" version="1.1" xmlns="http://www.w3.org/2000/svg" xmlns:xlink="http://www.w3.org/1999/xlink">
    <!-- Generator: Sketch 45 (43475) - http://www.bohemiancoding.com/sketch -->
    <title>email</title>
    <desc>Created with Sketch.</desc>
    <defs></defs>
    <g id="Final" stroke="none" stroke-width="1" fill="none" fill-rule="evenodd">
        <g id="Checks-and-Radios" transform="translate(-154.000000, -191.000000)" fill="#FF3431">
            <g id="email" transform="translate(154.000000, 191.000000)">
                <path d="M6.47860085,37.1607463 C-1.99396877,28.6880775 -1.99396877,14.9513192 6.47865044,6.47860085 C14.9513192,-1.99391918 28.6880775,-1.99391918 37.1607463,6.47860085 C45.6333159,14.9512696 45.6332663,28.6880279 37.1606967,37.1606471 C28.6879783,45.6332663 14.9512696,45.6333159 6.47860085,37.1607463 Z M7.57424476,36.0649536 C-0.293176735,28.1975321 -0.293127145,15.4417654 7.57439353,7.57429435 C15.4417654,-0.293176735 28.1975321,-0.293176735 36.064904,7.57429435 C43.9324247,15.4417654 43.9324247,28.1974825 36.0649536,36.064904 C28.1975321,43.9323751 15.4417158,43.9324743 7.57424476,36.0649536 Z M12.5214534,28.0153876 C12.5222964,28.016429 12.523437,28.0175696 12.5244784,28.0184126 L13.4292996,28.0183134 C14.8275919,26.6200211 16.2260826,25.2214312 17.6244742,23.8230397 C17.927073,23.5204904 18.4177176,23.5204904 18.7203164,23.8230397 C19.0228657,24.1256385 19.0228657,24.6162831 18.7203164,24.9188819 L15.6208849,28.0183134 C13.1501072,28.0183134 25.2029341,28.0184126 28.0184126,28.0184126 L24.9230971,24.9229979 C24.6157376,24.6230769 24.6162831,24.1258865 24.9189811,23.8231388 C25.22158,23.5205896 25.7122245,23.5205896 26.0148234,23.8231388 L30.209998,28.0184126 L31.1146208,28.0184126 C31.1156622,28.01752 31.1168523,28.0163298 31.117745,28.0152389 L31.117745,18.4564475 L32.6674359,16.9067565 L32.6674359,28.0184126 C32.6674359,28.8698252 31.9698022,29.5681036 31.117745,29.5681036 C19.753328,29.5681036 23.8858703,29.5681036 12.5214534,29.5681036 C11.6693961,29.5681036 10.9717624,28.8704203 10.9717624,28.0184126 L10.9717624,16.9067069 L12.5214534,18.4563979 L12.5214534,28.0153876 L12.5214534,28.0153876 Z M11.1529647,14.8962742 C11.4142054,14.4064727 11.930736,14.0711444 12.5214534,14.0711444 L31.117745,14.0711444 C31.7084128,14.0711444 32.2248938,14.4067702 32.4861841,14.896423 L31.117745,16.2648621 L22.9153919,24.4672152 C22.313715,25.068892 21.3265247,25.0698838 20.7238561,24.4672648 L11.1529647,14.8962742 L11.1529647,14.8962742 Z M29.5701864,15.6208353 L14.0689624,15.6208353 L21.8195496,23.3714721 L29.5701864,15.6208353 L29.5701864,15.6208353 Z" id="Shape"></path>
            </g>
        </g>
    </g>
</svg>